<svg width="28" height="29" viewBox="0 0 28 29" fill="none" xmlns="http://www.w3.org/2000/svg">
<g clip-path="url(#clip0_785_29)">
<path d="M22.7839 8.55046C23.0514 7.68771 23.1372 6.7789 23.0359 5.88133C22.9346 4.98377 22.6484 4.11693 22.1955 3.33546C22.1187 3.20242 22.0082 3.09194 21.8751 3.01514C21.7421 2.93834 21.5911 2.89793 21.4375 2.89796C20.4183 2.89583 19.4128 3.1321 18.5012 3.58788C17.5896 4.04367 16.7973 4.70635 16.1875 5.52296H13.5625C12.9527 4.70635 12.1604 4.04367 11.2488 3.58788C10.3372 3.1321 9.33167 2.89583 8.3125 2.89796C8.15887 2.89793 8.00794 2.93834 7.87489 3.01514C7.74183 3.09194 7.63135 3.20242 7.55453 3.33546C7.10155 4.11693 6.8154 4.98377 6.71413 5.88133C6.61285 6.7789 6.69864 7.68771 6.96609 8.55046C6.42548 9.49406 6.13589 10.5605 6.125 11.648V12.523C6.12684 14.0035 6.6643 15.4333 7.63812 16.5485C8.61194 17.6636 9.95636 18.3888 11.4231 18.59C10.8244 19.3561 10.4994 20.3006 10.5 21.273V22.148H7.875C7.17881 22.148 6.51113 21.8714 6.01884 21.3791C5.52656 20.8868 5.25 20.2192 5.25 19.523C5.25 18.9484 5.13684 18.3795 4.91697 17.8487C4.69711 17.3179 4.37485 16.8356 3.96859 16.4294C3.56234 16.0231 3.08004 15.7009 2.54924 15.481C2.01844 15.2611 1.44953 15.148 0.875 15.148C0.642936 15.148 0.420376 15.2401 0.256282 15.4042C0.0921873 15.5683 0 15.7909 0 16.023C0 16.255 0.0921873 16.4776 0.256282 16.6417C0.420376 16.8058 0.642936 16.898 0.875 16.898C1.57119 16.898 2.23887 17.1745 2.73116 17.6668C3.22344 18.1591 3.5 18.8268 3.5 19.523C3.5 20.6833 3.96094 21.7961 4.78141 22.6166C5.60188 23.437 6.71468 23.898 7.875 23.898H10.5V25.648C10.5 25.88 10.5922 26.1026 10.7563 26.2667C10.9204 26.4308 11.1429 26.523 11.375 26.523C11.6071 26.523 11.8296 26.4308 11.9937 26.2667C12.1578 26.1026 12.25 25.88 12.25 25.648V21.273C12.25 20.5768 12.5266 19.9091 13.0188 19.4168C13.5111 18.9245 14.1788 18.648 14.875 18.648C15.5712 18.648 16.2389 18.9245 16.7312 19.4168C17.2234 19.9091 17.5 20.5768 17.5 21.273V25.648C17.5 25.88 17.5922 26.1026 17.7563 26.2667C17.9204 26.4308 18.1429 26.523 18.375 26.523C18.6071 26.523 18.8296 26.4308 18.9937 26.2667C19.1578 26.1026 19.25 25.88 19.25 25.648V21.273C19.2506 20.3006 18.9256 19.3561 18.3269 18.59C19.7936 18.3888 21.1381 17.6636 22.1119 16.5485C23.0857 15.4333 23.6232 14.0035 23.625 12.523V11.648C23.6141 10.5605 23.3245 9.49406 22.7839 8.55046ZM21.875 12.523C21.875 13.6833 21.4141 14.7961 20.5936 15.6166C19.7731 16.437 18.6603 16.898 17.5 16.898H12.25C11.0897 16.898 9.97688 16.437 9.15641 15.6166C8.33594 14.7961 7.875 13.6833 7.875 12.523V11.648C7.88573 10.773 8.14769 9.91953 8.62969 9.18921C8.71954 9.07078 8.77774 8.93141 8.79879 8.78425C8.81984 8.63709 8.80305 8.48699 8.75 8.34812C8.52209 7.76034 8.4124 7.13335 8.42723 6.5031C8.44206 5.87285 8.5811 5.25172 8.83641 4.67531C9.5525 4.75234 10.2421 4.98956 10.854 5.36937C11.466 5.74918 11.9846 6.26185 12.3714 6.86937C12.4502 6.99264 12.5587 7.09417 12.6869 7.16468C12.8151 7.23519 12.959 7.27242 13.1053 7.27296H16.6436C16.7905 7.27297 16.935 7.236 17.0638 7.16547C17.1926 7.09494 17.3017 6.99311 17.3808 6.86937C17.7676 6.26179 18.2862 5.74909 18.8981 5.36927C19.5101 4.98945 20.1997 4.75227 20.9158 4.67531C21.1707 5.25187 21.3094 5.87307 21.3239 6.50332C21.3383 7.13357 21.2283 7.76048 21 8.34812C20.9471 8.48566 20.9294 8.63424 20.9485 8.78036C20.9676 8.92647 21.0229 9.06551 21.1094 9.18484C21.5962 9.91516 21.862 10.7704 21.875 11.648V12.523Z" fill="white"/>
</g>
<defs>
<clipPath id="clip0_785_29">
<rect width="28" height="28" fill="white" transform="translate(0 0.272949)"/>
</clipPath>
</defs>
</svg>
