<svg width="41" height="36" viewBox="0 0 41 36" fill="none" xmlns="http://www.w3.org/2000/svg">
<rect width="40.9091" height="36" rx="8" fill="#363840"/>
<g clip-path="url(#clip0_773_20)">
<path d="M27.1281 12.834C27.3313 12.1785 27.3965 11.4881 27.3195 10.8061C27.2426 10.1242 27.0252 9.46566 26.681 8.87195C26.6227 8.77087 26.5387 8.68693 26.4376 8.62859C26.3366 8.57024 26.2219 8.53954 26.1052 8.53956C25.3309 8.53794 24.5669 8.71744 23.8744 9.06372C23.1818 9.41 22.5798 9.91346 22.1165 10.5339H20.1222C19.6589 9.91346 19.057 9.41 18.3644 9.06372C17.6718 8.71744 16.9079 8.53794 16.1336 8.53956C16.0169 8.53954 15.9022 8.57024 15.8011 8.62859C15.7 8.68693 15.6161 8.77087 15.5577 8.87195C15.2136 9.46566 14.9962 10.1242 14.9192 10.8061C14.8423 11.4881 14.9075 12.1785 15.1107 12.834C14.6999 13.5509 14.4799 14.3611 14.4716 15.1873V15.8521C14.473 16.9769 14.8814 18.0632 15.6212 18.9104C16.3611 19.7576 17.3825 20.3085 18.4968 20.4614C18.042 21.0435 17.7951 21.7611 17.7955 22.4998V23.1646H15.8012C15.2723 23.1646 14.765 22.9544 14.391 22.5804C14.017 22.2064 13.8069 21.6992 13.8069 21.1702C13.8069 20.7337 13.7209 20.3015 13.5539 19.8983C13.3868 19.495 13.142 19.1286 12.8333 18.8199C12.5247 18.5113 12.1583 18.2664 11.755 18.0994C11.3517 17.9324 10.9195 17.8464 10.483 17.8464C10.3067 17.8464 10.1376 17.9164 10.0129 18.0411C9.88828 18.1658 9.81824 18.3348 9.81824 18.5112C9.81824 18.6875 9.88828 18.8565 10.0129 18.9812C10.1376 19.1059 10.3067 19.1759 10.483 19.1759C11.0119 19.1759 11.5192 19.386 11.8932 19.76C12.2672 20.1341 12.4773 20.6413 12.4773 21.1702C12.4773 22.0518 12.8275 22.8972 13.4509 23.5206C14.0742 24.1439 14.9196 24.4941 15.8012 24.4941H17.7955V25.8237C17.7955 26 17.8655 26.1691 17.9902 26.2937C18.1149 26.4184 18.284 26.4884 18.4603 26.4884C18.6366 26.4884 18.8057 26.4184 18.9303 26.2937C19.055 26.1691 19.1251 26 19.1251 25.8237V22.4998C19.1251 21.9709 19.3352 21.4636 19.7092 21.0896C20.0832 20.7156 20.5904 20.5055 21.1194 20.5055C21.6483 20.5055 22.1556 20.7156 22.5296 21.0896C22.9036 21.4636 23.1137 21.9709 23.1137 22.4998V25.8237C23.1137 26 23.1837 26.1691 23.3084 26.2937C23.4331 26.4184 23.6022 26.4884 23.7785 26.4884C23.9548 26.4884 24.1239 26.4184 24.2485 26.2937C24.3732 26.1691 24.4432 26 24.4432 25.8237V22.4998C24.4437 21.7611 24.1968 21.0435 23.7419 20.4614C24.8563 20.3085 25.8777 19.7576 26.6175 18.9104C27.3574 18.0632 27.7657 16.9769 27.7671 15.8521V15.1873C27.7588 14.3611 27.5388 13.5509 27.1281 12.834ZM26.4376 15.8521C26.4376 16.7336 26.0874 17.579 25.464 18.2024C24.8407 18.8257 23.9952 19.1759 23.1137 19.1759H19.1251C18.2435 19.1759 17.3981 18.8257 16.7747 18.2024C16.1514 17.579 15.8012 16.7336 15.8012 15.8521V15.1873C15.8093 14.5225 16.0084 13.8741 16.3746 13.3193C16.4428 13.2293 16.487 13.1234 16.503 13.0116C16.519 12.8998 16.5063 12.7858 16.466 12.6803C16.2928 12.2337 16.2095 11.7574 16.2207 11.2785C16.232 10.7997 16.3376 10.3278 16.5316 9.88988C17.0757 9.94841 17.5996 10.1286 18.0645 10.4172C18.5294 10.7057 18.9234 11.0952 19.2173 11.5568C19.2772 11.6505 19.3596 11.7276 19.457 11.7812C19.5544 11.8347 19.6637 11.863 19.7749 11.8634H22.463C22.5746 11.8634 22.6844 11.8353 22.7823 11.7818C22.8802 11.7282 22.963 11.6508 23.0231 11.5568C23.317 11.0952 23.711 10.7057 24.1759 10.4171C24.6408 10.1285 25.1647 9.94835 25.7088 9.88988C25.9025 10.3279 26.0079 10.7999 26.0188 11.2787C26.0298 11.7575 25.9462 12.2338 25.7728 12.6803C25.7326 12.7848 25.7192 12.8976 25.7337 13.0087C25.7482 13.1197 25.7902 13.2253 25.8559 13.316C26.2257 13.8708 26.4277 14.5206 26.4376 15.1873V15.8521Z" fill="white"/>
</g>
<defs>
<clipPath id="clip0_773_20">
<rect width="21.2727" height="21.2727" fill="white" transform="translate(9.81824 6.54541)"/>
</clipPath>
</defs>
</svg>
