<svg width="32" height="32" viewBox="0 0 32 32" fill="none" xmlns="http://www.w3.org/2000/svg">
<path d="M10.9425 19.3363L8.44249 26.3363C8.37317 26.5306 8.24545 26.6987 8.07683 26.8176C7.9082 26.9365 7.70693 27.0003 7.50062 27.0003C7.2943 27.0003 7.09303 26.9365 6.9244 26.8176C6.75578 26.6987 6.62806 26.5306 6.55874 26.3363L4.05874 19.3363C4.01458 19.2126 3.99522 19.0814 4.00176 18.9502C4.0083 18.819 4.04061 18.6904 4.09684 18.5718C4.15308 18.4531 4.23215 18.3466 4.32952 18.2585C4.4269 18.1704 4.54068 18.1023 4.66436 18.0581C4.78805 18.014 4.91923 17.9946 5.0504 18.0011C5.18157 18.0077 5.31017 18.04 5.42886 18.0962C5.54754 18.1525 5.65399 18.2315 5.74212 18.3289C5.83025 18.4263 5.89833 18.5401 5.94249 18.6637L7.49999 23.0263L9.05874 18.6637C9.14792 18.4139 9.33268 18.2098 9.57237 18.0962C9.81207 17.9827 10.0871 17.9689 10.3369 18.0581C10.5867 18.1473 10.7908 18.3321 10.9044 18.5718C11.018 18.8115 11.0317 19.0864 10.9425 19.3363ZM26 20C26.2652 20 26.5196 19.8946 26.7071 19.7071C26.8946 19.5196 27 19.2652 27 19C27 18.7348 26.8946 18.4804 26.7071 18.2929C26.5196 18.1054 26.2652 18 26 18H22C21.7348 18 21.4804 18.1054 21.2929 18.2929C21.1053 18.4804 21 18.7348 21 19V26C21 26.2652 21.1053 26.5196 21.2929 26.7071C21.4804 26.8946 21.7348 27 22 27H26C26.2652 27 26.5196 26.8946 26.7071 26.7071C26.8946 26.5196 27 26.2652 27 26C27 25.7348 26.8946 25.4804 26.7071 25.2929C26.5196 25.1054 26.2652 25 26 25H23V23.5H25C25.2652 23.5 25.5196 23.3946 25.7071 23.2071C25.8946 23.0196 26 22.7652 26 22.5C26 22.2348 25.8946 21.9804 25.7071 21.7929C25.5196 21.6054 25.2652 21.5 25 21.5H23V20H26ZM18 18C17.7348 18 17.4804 18.1054 17.2929 18.2929C17.1053 18.4804 17 18.7348 17 19V23.75C17 24.0815 16.8683 24.3995 16.6339 24.6339C16.3995 24.8683 16.0815 25 15.75 25C15.4185 25 15.1005 24.8683 14.8661 24.6339C14.6317 24.3995 14.5 24.0815 14.5 23.75V19C14.5 18.7348 14.3946 18.4804 14.2071 18.2929C14.0196 18.1054 13.7652 18 13.5 18C13.2348 18 12.9804 18.1054 12.7929 18.2929C12.6053 18.4804 12.5 18.7348 12.5 19V23.75C12.5 24.612 12.8424 25.4386 13.4519 26.0481C14.0614 26.6576 14.888 27 15.75 27C16.6119 27 17.4386 26.6576 18.0481 26.0481C18.6576 25.4386 19 24.612 19 23.75V19C19 18.7348 18.8946 18.4804 18.7071 18.2929C18.5196 18.1054 18.2652 18 18 18ZM27 11V14C27 14.2652 26.8946 14.5196 26.7071 14.7071C26.5196 14.8946 26.2652 15 26 15C25.7348 15 25.4804 14.8946 25.2929 14.7071C25.1053 14.5196 25 14.2652 25 14V12H19C18.7348 12 18.4804 11.8946 18.2929 11.7071C18.1053 11.5196 18 11.2652 18 11V5H6.99999V14C6.99999 14.2652 6.89463 14.5196 6.7071 14.7071C6.51956 14.8946 6.26521 15 5.99999 15C5.73477 15 5.48042 14.8946 5.29288 14.7071C5.10535 14.5196 4.99999 14.2652 4.99999 14V5C4.99999 4.46957 5.2107 3.96086 5.58578 3.58579C5.96085 3.21071 6.46956 3 6.99999 3H19C19.1314 2.9999 19.2614 3.02568 19.3828 3.07586C19.5042 3.12605 19.6146 3.19967 19.7075 3.2925L26.7075 10.2925C26.8003 10.3854 26.8739 10.4958 26.9241 10.6172C26.9743 10.7385 27.0001 10.8686 27 11ZM23.5862 10L20 6.41375V10H23.5862Z" fill="#28A64C"/>
</svg>
