<svg width="33" height="33" viewBox="0 0 33 33" fill="none" xmlns="http://www.w3.org/2000/svg">
<path d="M26.227 14.8665C26.1341 14.9595 26.0238 15.0332 25.9024 15.0835C25.781 15.1339 25.6509 15.1598 25.5195 15.1598C25.3881 15.1598 25.2579 15.1339 25.1365 15.0835C25.0151 15.0332 24.9048 14.9595 24.812 14.8665L17.5195 7.57274V27.159C17.5195 27.4242 17.4141 27.6786 17.2266 27.8661C17.039 28.0536 16.7847 28.159 16.5195 28.159C16.2543 28.159 15.9999 28.0536 15.8124 27.8661C15.6248 27.6786 15.5195 27.4242 15.5195 27.159V7.57274L8.22697 14.8665C8.03933 15.0541 7.78483 15.1595 7.51947 15.1595C7.25411 15.1595 6.99961 15.0541 6.81197 14.8665C6.62433 14.6788 6.51891 14.4244 6.51891 14.159C6.51891 13.8936 6.62433 13.6391 6.81197 13.4515L15.812 4.45149C15.9048 4.35851 16.0151 4.28475 16.1365 4.23443C16.2579 4.18411 16.3881 4.1582 16.5195 4.1582C16.6509 4.1582 16.781 4.18411 16.9024 4.23443C17.0238 4.28475 17.1341 4.35851 17.227 4.45149L26.227 13.4515C26.3199 13.5444 26.3937 13.6547 26.444 13.776C26.4944 13.8974 26.5203 14.0276 26.5203 14.159C26.5203 14.2904 26.4944 14.4205 26.444 14.5419C26.3937 14.6633 26.3199 14.7736 26.227 14.8665Z" />
</svg>
