<svg width="26" height="26" viewBox="0 0 26 26" fill="none" xmlns="http://www.w3.org/2000/svg">
<path d="M22.75 4.875H3.25C3.03451 4.875 2.82785 4.9606 2.67548 5.11298C2.5231 5.26535 2.4375 5.47201 2.4375 5.6875V19.5C2.4375 19.931 2.6087 20.3443 2.91345 20.649C3.2182 20.9538 3.63152 21.125 4.0625 21.125H21.9375C22.3685 21.125 22.7818 20.9538 23.0865 20.649C23.3913 20.3443 23.5625 19.931 23.5625 19.5V5.6875C23.5625 5.47201 23.4769 5.26535 23.3245 5.11298C23.1722 4.9606 22.9655 4.875 22.75 4.875ZM20.6609 6.5L13 13.523L5.33914 6.5H20.6609ZM21.9375 19.5H4.0625V7.53492L12.4505 15.2242C12.6004 15.3618 12.7965 15.4382 13 15.4382C13.2035 15.4382 13.3996 15.3618 13.5495 15.2242L21.9375 7.53492V19.5Z" fill="#8F8F8F"/>
</svg>
