<svg width="371" height="371" viewBox="0 0 371 371" fill="none" xmlns="http://www.w3.org/2000/svg">
<path d="M343.755 220.093C342.787 217.391 341.649 214.753 340.349 212.195L280.076 75.0697C279.506 73.749 278.689 72.549 277.67 71.5336C273.364 67.2262 268.251 63.8093 262.624 61.4781C256.997 59.1468 250.965 57.947 244.874 57.947C238.784 57.947 232.752 59.1468 227.125 61.4781C221.498 63.8093 216.385 67.2262 212.079 71.5336C209.912 73.7026 208.693 76.6415 208.688 79.7072V115.938H162.313V79.7072C162.314 78.1843 162.015 76.676 161.433 75.2686C160.851 73.8611 159.998 72.5821 158.921 71.5046C154.615 67.1972 149.502 63.7803 143.875 61.4491C138.248 59.1178 132.216 57.918 126.126 57.918C120.035 57.918 114.003 59.1178 108.376 61.4491C102.749 63.7803 97.6362 67.1972 93.3297 71.5046C92.3106 72.52 91.4942 73.72 90.924 75.0407L30.651 212.166C29.3509 214.724 28.2134 217.362 27.2453 220.064C23.8324 229.613 22.5487 239.794 23.484 249.891C24.4194 259.989 27.5513 269.76 32.6602 278.52C37.7692 287.28 44.7317 294.817 53.06 300.603C61.3883 306.39 70.8809 310.285 80.873 312.016C90.865 313.748 101.115 313.273 110.904 310.627C120.694 307.98 129.786 303.225 137.545 296.695C145.303 290.165 151.54 282.017 155.819 272.823C160.097 263.628 162.313 253.61 162.313 243.469V139.125H208.688V243.469C208.682 253.611 210.895 263.632 215.171 272.829C219.446 282.026 225.681 290.176 233.438 296.71C241.196 303.244 250.288 308.002 260.078 310.651C269.868 313.301 280.119 313.777 290.113 312.048C300.106 310.318 309.601 306.424 317.931 300.639C326.261 294.853 333.226 287.316 338.336 278.555C343.447 269.795 346.58 260.023 347.516 249.924C348.452 239.825 347.168 229.644 343.755 220.093ZM111.17 86.591C115.035 83.3364 119.858 81.4335 124.904 81.1719C129.95 80.9103 134.944 82.3043 139.125 85.1418V191.674C130.073 183.546 119.044 177.94 107.143 175.416C95.2424 172.893 82.8873 173.542 71.3161 177.298L111.17 86.591ZM92.75 289.844C83.5779 289.844 74.6118 287.124 66.9854 282.028C59.3591 276.933 53.4151 269.69 49.9051 261.216C46.3951 252.742 45.4767 243.418 47.2661 234.422C49.0555 225.426 53.4723 217.163 59.9579 210.677C66.4436 204.191 74.7068 199.774 83.7027 197.985C92.6986 196.196 102.023 197.114 110.497 200.624C118.971 204.134 126.214 210.078 131.309 217.704C136.405 225.331 139.125 234.297 139.125 243.469C139.125 255.768 134.239 267.564 125.542 276.261C116.845 284.958 105.049 289.844 92.75 289.844ZM231.875 85.1273C236.056 82.2898 241.05 80.8958 246.096 81.1574C251.142 81.419 255.965 83.3219 259.83 86.5765L299.684 177.269C288.111 173.515 275.756 172.868 263.855 175.394C251.954 177.92 240.925 183.529 231.875 191.659V85.1273ZM278.25 289.844C269.078 289.844 260.112 287.124 252.485 282.028C244.859 276.933 238.915 269.69 235.405 261.216C231.895 252.742 230.977 243.418 232.766 234.422C234.555 225.426 238.972 217.163 245.458 210.677C251.944 204.191 260.207 199.774 269.203 197.985C278.199 196.196 287.523 197.114 295.997 200.624C304.471 204.134 311.714 210.078 316.809 217.704C321.905 225.331 324.625 234.297 324.625 243.469C324.625 255.768 319.739 267.564 311.042 276.261C302.345 284.958 290.549 289.844 278.25 289.844Z" fill="#CFCCCC" fill-opacity="0.2"/>
</svg>
