<svg width="33" height="33" viewBox="0 0 33 33" fill="none" xmlns="http://www.w3.org/2000/svg">
<path d="M28.846 27.5074L22.5873 21.2499C24.4013 19.072 25.3059 16.2786 25.1128 13.4508C24.9198 10.623 23.6439 7.97845 21.5507 6.06735C19.4575 4.15624 16.7081 3.1257 13.8744 3.1901C11.0407 3.2545 8.34098 4.40889 6.33676 6.41311C4.33253 8.41734 3.17815 11.1171 3.11375 13.9508C3.04935 16.7844 4.07989 19.5339 5.99099 21.6271C7.9021 23.7203 10.5466 24.9961 13.3744 25.1892C16.2023 25.3822 18.9957 24.4777 21.1735 22.6636L27.431 28.9224C27.5239 29.0153 27.6342 29.089 27.7556 29.1393C27.877 29.1896 28.0071 29.2154 28.1385 29.2154C28.2699 29.2154 28.4 29.1896 28.5214 29.1393C28.6428 29.089 28.7531 29.0153 28.846 28.9224C28.9389 28.8295 29.0126 28.7192 29.0629 28.5978C29.1132 28.4764 29.1391 28.3463 29.1391 28.2149C29.1391 28.0835 29.1132 27.9534 29.0629 27.832C29.0126 27.7106 28.9389 27.6003 28.846 27.5074ZM5.13853 14.2149C5.13853 12.4349 5.66637 10.6948 6.6553 9.21475C7.64424 7.73471 9.04984 6.58116 10.6944 5.89997C12.3389 5.21878 14.1485 5.04055 15.8943 5.38782C17.6402 5.73508 19.2438 6.59225 20.5025 7.85092C21.7612 9.1096 22.6183 10.7132 22.9656 12.4591C23.3129 14.2049 23.1346 16.0145 22.4534 17.659C21.7723 19.3036 20.6187 20.7092 19.1387 21.6981C17.6586 22.687 15.9186 23.2149 14.1385 23.2149C11.7524 23.2122 9.46475 22.2632 7.77749 20.5759C6.09024 18.8887 5.14118 16.601 5.13853 14.2149Z"/>
</svg>
