<svg width="28" height="28" viewBox="0 0 28 28" fill="none" xmlns="http://www.w3.org/2000/svg">
<path d="M26.1625 10.6411C26.0565 10.3145 25.8568 10.0263 25.5882 9.81236C25.3197 9.59843 24.9941 9.46823 24.652 9.438L18.1563 8.87799L15.61 2.82299C15.4774 2.50528 15.2538 2.23389 14.9673 2.043C14.6808 1.8521 14.3443 1.75024 14 1.75024C13.6557 1.75024 13.3192 1.8521 13.0327 2.043C12.7462 2.23389 12.5226 2.50528 12.39 2.82299L9.85141 8.87799L3.34797 9.44128C3.00457 9.47013 2.67733 9.59973 2.4073 9.81383C2.13726 10.0279 1.93645 10.317 1.83003 10.6447C1.72362 10.9725 1.71634 11.3244 1.80912 11.6563C1.9019 11.9882 2.0906 12.2853 2.35156 12.5103L7.28547 16.8219L5.80672 23.2247C5.72853 23.5598 5.75084 23.9105 5.87086 24.2329C5.99089 24.5554 6.20331 24.8353 6.48156 25.0377C6.75981 25.24 7.09154 25.3559 7.43528 25.3708C7.77903 25.3857 8.11953 25.2989 8.41422 25.1213L13.9923 21.7307L19.5825 25.1213C19.8772 25.2989 20.2177 25.3857 20.5614 25.3708C20.9052 25.3559 21.2369 25.24 21.5152 25.0377C21.7934 24.8353 22.0058 24.5554 22.1259 24.2329C22.2459 23.9105 22.2682 23.5598 22.19 23.2247L20.7123 16.8153L25.6452 12.5103C25.9061 12.2845 26.0944 11.9865 26.1865 11.654C26.2785 11.3214 26.2702 10.969 26.1625 10.6411ZM24.4978 11.188L19.565 15.493C19.3249 15.7018 19.1463 15.9722 19.0484 16.2749C18.9505 16.5777 18.937 16.9014 19.0094 17.2113L20.4914 23.625L14.9056 20.2344C14.6331 20.0684 14.3202 19.9807 14.0011 19.9807C13.682 19.9807 13.3691 20.0684 13.0966 20.2344L7.51844 23.625L8.99063 17.2157C9.06298 16.9058 9.04948 16.5821 8.95157 16.2793C8.85367 15.9765 8.67508 15.7062 8.435 15.4974L3.5 11.1946C3.4996 11.1913 3.4996 11.188 3.5 11.1847L10.0013 10.6225C10.3187 10.5945 10.6224 10.4804 10.8797 10.2925C11.137 10.1046 11.3382 9.84996 11.4614 9.55612L14 3.50878L16.5375 9.55612C16.6607 9.84996 16.8619 10.1046 17.1192 10.2925C17.3765 10.4804 17.6802 10.5945 17.9977 10.6225L24.5 11.1847C24.5 11.1847 24.5 11.1913 24.5 11.1924L24.4978 11.188Z" fill="#FDFDFD" fill-opacity="0.51"/>
</svg>
