<svg width="29" height="29" viewBox="0 0 29 29" fill="none" xmlns="http://www.w3.org/2000/svg">
<path d="M26.1589 24.0155C24.4336 21.0328 21.7749 18.8941 18.6722 17.8802C20.2069 16.9666 21.3994 15.5744 22.0663 13.9174C22.7333 12.2605 22.8379 10.4304 22.3641 8.70824C21.8903 6.98609 20.8642 5.46708 19.4436 4.38449C18.0229 3.30189 16.2862 2.71558 14.5 2.71558C12.7139 2.71558 10.9771 3.30189 9.55645 4.38449C8.13579 5.46708 7.10977 6.98609 6.63596 8.70824C6.16216 10.4304 6.26677 12.2605 6.93372 13.9174C7.60067 15.5744 8.7931 16.9666 10.3279 17.8802C7.22509 18.893 4.56638 21.0317 2.84111 24.0155C2.77784 24.1187 2.73588 24.2335 2.71769 24.3531C2.6995 24.4728 2.70546 24.5949 2.73522 24.7122C2.76498 24.8295 2.81793 24.9396 2.89095 25.0361C2.96396 25.1326 3.05557 25.2135 3.16037 25.2741C3.26516 25.3346 3.38101 25.3735 3.5011 25.3886C3.62118 25.4036 3.74305 25.3944 3.85953 25.3616C3.97601 25.3287 4.08474 25.2729 4.17929 25.1974C4.27384 25.1218 4.35231 25.0281 4.41006 24.9218C6.54427 21.2333 10.3165 19.0312 14.5 19.0312C18.6835 19.0312 22.4558 21.2333 24.59 24.9218C24.6477 25.0281 24.7262 25.1218 24.8207 25.1974C24.9153 25.2729 25.024 25.3287 25.1405 25.3616C25.257 25.3944 25.3789 25.4036 25.4989 25.3886C25.619 25.3735 25.7349 25.3346 25.8397 25.2741C25.9445 25.2135 26.0361 25.1326 26.1091 25.0361C26.1821 24.9396 26.2351 24.8295 26.2648 24.7122C26.2946 24.5949 26.3005 24.4728 26.2823 24.3531C26.2642 24.2335 26.2222 24.1187 26.1589 24.0155ZM8.15627 10.8749C8.15627 9.62023 8.52832 8.39373 9.22538 7.35051C9.92244 6.30729 10.9132 5.49419 12.0724 5.01405C13.2315 4.5339 14.5071 4.40828 15.7376 4.65305C16.9682 4.89783 18.0985 5.50201 18.9857 6.3892C19.8729 7.27639 20.4771 8.40674 20.7219 9.6373C20.9666 10.8679 20.841 12.1434 20.3609 13.3026C19.8807 14.4617 19.0676 15.4525 18.0244 16.1495C16.9812 16.8466 15.7547 17.2187 14.5 17.2187C12.8181 17.2169 11.2056 16.5479 10.0163 15.3586C8.827 14.1693 8.15807 12.5568 8.15627 10.8749Z" fill="#8F8F8F"/>
</svg>
